<svg xmlns="http://www.w3.org/2000/svg" version="1.1" xmlns:xlink="http://www.w3.org/1999/xlink" width="1000" height="1000"><g clip-path="url(#SvgjsClipPath1006)"><rect width="1000" height="1000" fill="#ffffff"></rect><g transform="matrix(1.1666666666666667,0,0,1.1666666666666667,150,150)"><svg xmlns="http://www.w3.org/2000/svg" version="1.1" xmlns:xlink="http://www.w3.org/1999/xlink" width="600" height="600"><svg width="600" height="600" viewBox="0 0 600 600" fill="none" xmlns="http://www.w3.org/2000/svg">
<rect width="600" height="600" fill="#D9D9D9"></rect>
<path d="M298 83H299V211L286 216L275 223L267 230L262 228L252 221L242 216L226 211L220 210H194L178 214L162 222L149 232L139 243L130 258L124 274L122 284L121 299L123 317L127 331L136 348L144 358L155 368L168 376L181 381L196 384H217L233 381L248 375L260 367L264 368L275 375L286 380L299 384V523L283 515L255 500L221 480L205 469L188 457L175 446L165 437L150 422L140 409L131 395L121 376L112 351L107 327L105 312L104 293V137L140 136L172 133L200 128L219 123L244 114L269 102L287 91L298 83Z" fill="#CD9016"></path>
<path d="M299 35L303 37L312 45L330 58L350 70L366 78L386 86L406 92L434 97L455 99L531 100V307L529 328L524 353L518 374L510 394L500 413L489 429L479 442L467 456L456 467L448 474L434 486L419 497L401 509L382 521L361 533L336 547L307 562L302 565L296 564L271 551L249 539L226 526L203 512L182 498L166 486L153 475L143 466L126 449L117 438L104 420L93 401L84 381L76 357L72 340L69 318L68 300V100L144 99L173 96L197 91L216 85L236 77L259 65L277 53L293 40L299 35ZM298 64L288 72L270 84L250 95L229 104L208 111L181 117L158 120L146 121L91 122L90 123V294L91 315L94 337L101 363L108 382L119 403L131 420L140 431L151 443L164 456L175 465L189 476L208 489L227 501L246 512L264 522L291 536L298 540L304 539L323 529L343 518L359 509L387 492L399 484L417 471L430 460L440 451L453 439L462 428L469 420L479 405L488 389L495 373L501 355L505 338L508 317L509 303V122L453 121L425 118L403 114L376 106L357 98L341 90L328 83L313 73L301 64H298Z" fill="#CD9016"></path>
<path d="M310 227H328L344 231L360 239L364 242L363 246L355 258L351 263L346 261L334 255L327 253H314L306 256L302 261V269L306 274L318 280L343 290L353 296L360 302L366 312L368 319V333L365 343L360 351L355 356L350 360L342 364L329 367H310L292 363L278 356L269 349L271 344L280 332L285 327L292 333L304 339L312 341H326L333 338L338 332V324L335 319L327 314L299 303L287 296L279 288L275 280L273 271V261L275 252L279 244L284 238L295 231L310 227Z" fill="#CD9016"></path>
<path d="M197 227H217L232 231L248 239L256 245L254 249L245 260L240 266L235 264L226 258L217 255H199L188 259L182 263H180L178 267L172 275L168 286L167 292V304L171 317L177 327L187 335L198 339L203 340H212L225 337L236 330L240 328L249 339L256 346L254 350L243 358L233 363L216 367H201L185 364L173 359L160 350L152 342L146 332L141 321L138 308V285L142 270L148 258L156 248L166 239L181 231L197 227Z" fill="#CD9016"></path>
<path d="M395 229L419 230V364L403 365H392V230L395 229Z" fill="#CD9016"></path>
</svg></svg></g></g><defs><clipPath id="SvgjsClipPath1006"><rect width="1000" height="1000" x="0" y="0" rx="350" ry="350"></rect></clipPath></defs></svg>